<?xml version="1.0" encoding="UTF-8"?>
<svg version="1.1" xmlns="http://www.w3.org/2000/svg" width="729" height="342">
<path d="M0 0 C-0.64047398 3.44748958 -1.99705019 5.84644185 -3.9375 8.75 C-4.46214844 9.54921875 -4.98679687 10.3484375 -5.52734375 11.171875 C-6.01332031 11.77515625 -6.49929688 12.3784375 -7 13 C-7.66 13 -8.32 13 -9 13 C-9.37125 14.28777344 -9.37125 14.28777344 -9.75 15.6015625 C-11.09848901 19.26776699 -12.8247178 22.13606879 -15 25.375 C-15.70125 26.43460938 -16.4025 27.49421875 -17.125 28.5859375 C-17.74375 29.38257812 -18.3625 30.17921875 -19 31 C-19.66 31 -20.32 31 -21 31 C-21.39638672 31.83144531 -21.39638672 31.83144531 -21.80078125 32.6796875 C-25.59866321 40.02803241 -30.50926036 46.83396051 -35.296875 53.5625 C-37.54101395 56.77429519 -39.64642753 60.07023319 -41.73828125 63.3828125 C-42.15464844 63.91648438 -42.57101563 64.45015625 -43 65 C-43.66 65 -44.32 65 -45 65 C-45.23460937 65.68835938 -45.46921875 66.37671875 -45.7109375 67.0859375 C-47.26513853 70.59937377 -49.36081353 73.54810498 -51.625 76.625 C-52.29160645 77.54478638 -52.29160645 77.54478638 -52.97167969 78.4831543 C-54.30899864 80.32615595 -55.65331194 82.16383679 -57 84 C-61.21832368 89.76504236 -65.38785152 95.52417303 -69.30859375 101.49609375 C-71.86709089 105.28361492 -74.56133004 108.97225282 -77.23974609 112.67553711 C-80.59379409 117.34665628 -83.6676444 122.15227215 -86.625 127.0859375 C-87.07875 127.71757812 -87.5325 128.34921875 -88 129 C-88.66 129 -89.32 129 -90 129 C-90.25652344 129.73476562 -90.51304687 130.46953125 -90.77734375 131.2265625 C-92.04902127 134.11119842 -93.50929789 136.00031531 -95.5625 138.375 C-98.64107484 142.23604595 -100.09787693 144.91039952 -100 150 C-99.18028284 152.84902067 -99.18028284 152.84902067 -98 155 C-97.34 155 -96.68 155 -96 155 C-94.23750737 157.17334395 -92.60798904 159.34165557 -91 161.625 C-90.54882812 162.24246094 -90.09765625 162.85992187 -89.6328125 163.49609375 C-86.99180725 167.20756562 -85.20589785 170.54639999 -84 175 C-83.34 175 -82.68 175 -82 175 C-80.16344704 177.44573638 -78.44231032 179.89452771 -76.75 182.4375 C-76.25564453 183.1687207 -75.76128906 183.89994141 -75.25195312 184.65332031 C-73.82730793 186.76407913 -72.41184481 188.88066407 -71 191 C-70.35546875 191.96550781 -69.7109375 192.93101562 -69.046875 193.92578125 C-68.09985519 195.34870242 -67.15629377 196.77394242 -66.21875 198.203125 C-64.98129276 200.08187179 -64.98129276 200.08187179 -63.34375 202.046875 C-62 204 -62 204 -62 207 C-63.28583984 206.98259766 -63.28583984 206.98259766 -64.59765625 206.96484375 C-71.53864322 206.87770587 -71.53864322 206.87770587 -78.4375 207.5 C-89.39944717 209.0385189 -99.82298514 208.70763517 -109.3046875 202.48828125 C-109.86414063 201.99714844 -110.42359375 201.50601563 -111 201 C-111 200.34 -111 199.68 -111 199 C-111.66 199 -112.32 199 -113 199 C-113 198.34 -113 197.68 -113 197 C-113.66 197 -114.32 197 -115 197 C-118.35329247 192.76426215 -120.90444913 188.48153833 -123.203125 183.6015625 C-123.89417839 181.99979493 -123.89417839 181.99979493 -125 181 C-126.22956039 182.68721314 -127.45862651 184.37478649 -128.6875 186.0625 C-129.41582031 187.06023437 -130.14414063 188.05796875 -130.89453125 189.0859375 C-132.58979956 191.43226433 -134.23911139 193.7999869 -135.875 196.1875 C-136.926875 197.5796875 -136.926875 197.5796875 -138 199 C-138.66 199 -139.32 199 -140 199 C-140.2784375 199.99 -140.2784375 199.99 -140.5625 201 C-143.94681939 208.06292743 -149.73597309 212.74301243 -155.91796875 217.32421875 C-157.88112839 218.90432285 -159.37563872 220.4701998 -160.9375 222.4375 C-161.618125 223.283125 -162.29875 224.12875 -163 225 C-163.66 225 -164.32 225 -165 225 C-165 225.66 -165 226.32 -165 227 C-166.47144268 228.28788243 -168.0045715 229.50570327 -169.5625 230.6875 C-173.57689033 233.80221136 -177.17024841 237.02949829 -180.625 240.75 C-182 242 -182 242 -184 242 C-184 242.66 -184 243.32 -184 244 C-184.66 244 -185.32 244 -186 244 C-186 244.66 -186 245.32 -186 246 C-187.43359375 247.19140625 -187.43359375 247.19140625 -189.4375 248.5625 C-193.71018108 251.6458 -197.27597192 255.18183423 -200.953125 258.94140625 C-203.17163412 261.17261676 -205.41613791 263.19912642 -208 265 C-208.66 265 -209.32 265 -210 265 C-210 265.66 -210 266.32 -210 267 C-210.78375 267.2475 -211.5675 267.495 -212.375 267.75 C-215.51591767 269.24567508 -215.56303019 269.95700512 -217 273 C-218.85978129 275.14954892 -220.79525748 277.20265555 -223 279 C-223.66 279 -224.32 279 -225 279 C-225 279.66 -225 280.32 -225 281 C-226.6875 282.4453125 -226.6875 282.4453125 -229 284.125 C-233.1881651 287.26777792 -236.79020925 290.68371773 -240.37109375 294.49609375 C-242 296 -242 296 -244 296 C-244 296.66 -244 297.32 -244 298 C-245.828125 299.65625 -245.828125 299.65625 -248.25 301.5 C-249.03890625 302.1084375 -249.8278125 302.716875 -250.640625 303.34375 C-252.71137679 304.79739033 -254.7058932 305.94765743 -257 307 C-257.495 305.515 -257.495 305.515 -258 304 C-256.77240658 301.70768796 -255.51541764 299.6426284 -254.0625 297.5 C-253.65443115 296.88431152 -253.2463623 296.26862305 -252.82592773 295.63427734 C-251.56501091 293.7459478 -250.28631993 291.87110076 -249 290 C-248.41412109 289.14390137 -248.41412109 289.14390137 -247.81640625 288.27050781 C-243.24211371 281.63461803 -243.24211371 281.63461803 -241 279 C-240.34 279 -239.68 279 -239 279 C-238.773125 278.34 -238.54625 277.68 -238.3125 277 C-234.04120023 267.2370291 -226.93017102 258.63627559 -220.3125 250.375 C-218.06507266 247.52386194 -216.20249906 244.70535653 -214.5 241.5 C-212.39516996 237.54156157 -209.90104809 234.21385872 -207.09765625 230.7265625 C-204.36767091 227.17808994 -201.83992831 223.50691892 -199.3125 219.8125 C-198.61713135 218.79627563 -198.61713135 218.79627563 -197.90771484 217.75952148 C-197.45992676 217.10282471 -197.01213867 216.44612793 -196.55078125 215.76953125 C-196.11846191 215.13611816 -195.68614258 214.50270508 -195.24072266 213.85009766 C-194.42700623 212.6367283 -193.62910081 211.41257248 -192.84912109 210.17724609 C-191.94651002 208.75384972 -190.97924809 207.3718007 -190 206 C-189.34 206 -188.68 206 -188 206 C-187.73058594 205.26394531 -187.46117187 204.52789062 -187.18359375 203.76953125 C-186.03755243 201.0878702 -184.77146717 199.03994136 -183.0625 196.6875 C-180.30174789 192.83743234 -177.59742407 188.95746181 -174.93237305 185.04101562 C-170.9961968 179.26053249 -166.99568011 173.61960014 -162.625 168.15625 C-160.05100633 164.7407584 -157.82410965 161.11707474 -155.578125 157.48046875 C-154.1462738 155.22991055 -152.59901475 153.13201967 -151 151 C-149.90982813 148.4003594 -149.91583074 147.29841827 -150.6875 144.5625 C-152.14483699 141.71722302 -153.99188026 139.47668101 -156 137 C-156 136.34 -156 135.68 -156 135 C-156.66 135 -157.32 135 -158 135 C-159.15387571 133.18889095 -160.22266141 131.3232679 -161.25 129.4375 C-164.1555269 124.29181691 -164.1555269 124.29181691 -167.8125 119.6875 C-171.97644028 115.14501969 -175.15272986 109.88556951 -178.51953125 104.74609375 C-181.16012368 100.72247956 -183.96242636 96.82509976 -186.8203125 92.953125 C-188 91 -188 91 -188 88 C-183.30481298 87.80628142 -178.609373 87.6278072 -173.91308594 87.46289062 C-172.31853041 87.40481292 -170.72411579 87.34271145 -169.12988281 87.27636719 C-166.82643335 87.18123098 -164.52285014 87.10100875 -162.21875 87.0234375 C-161.51633179 86.99124115 -160.81391357 86.9590448 -160.09020996 86.9258728 C-153.25728958 86.7232083 -146.58968181 87.76539257 -141 92 C-140.67 92.99 -140.34 93.98 -140 95 C-138.515 95.495 -138.515 95.495 -137 96 C-135.75732422 97.44287109 -135.75732422 97.44287109 -134.5546875 99.2734375 C-134.11769531 99.9334375 -133.68070312 100.5934375 -133.23046875 101.2734375 C-132.78316406 101.96695313 -132.33585937 102.66046875 -131.875 103.375 C-131.41996094 104.06078125 -130.96492188 104.7465625 -130.49609375 105.453125 C-128.61472116 108.3226369 -127.09223143 110.72330572 -126 114 C-125.34 114 -124.68 114 -124 114 C-123.7421875 113.28457031 -123.484375 112.56914062 -123.21875 111.83203125 C-121.92615235 108.82839889 -120.3722291 106.36494628 -118.5 103.6875 C-117.8915625 102.80449219 -117.283125 101.92148438 -116.65625 101.01171875 C-116.1096875 100.34785156 -115.563125 99.68398437 -115 99 C-114.34 99 -113.68 99 -113 99 C-112.74992188 98.44441406 -112.49984375 97.88882813 -112.2421875 97.31640625 C-104.95693695 83.73101764 -90.79060639 73.40640794 -79 64 C-78.11183594 63.25621094 -77.22367188 62.51242188 -76.30859375 61.74609375 C-74 60 -74 60 -72 60 C-72 59.34 -72 58.68 -72 58 C-66.99670079 52.83310518 -60.93504287 48.05109773 -55 44 C-54.34 44 -53.68 44 -53 44 C-52.67 43.01 -52.34 42.02 -52 41 C-50.29296875 39.28125 -50.29296875 39.28125 -48.1875 37.5 C-47.50042969 36.9121875 -46.81335938 36.324375 -46.10546875 35.71875 C-40.325 31 -40.325 31 -38 31 C-38 30.34 -38 29.68 -38 29 C-36.06640625 27.34375 -36.06640625 27.34375 -33.5625 25.5 C-30.25143208 23.20089737 -30.25143208 23.20089737 -28 20 C-27.34 20 -26.68 20 -26 20 C-25.67 19.01 -25.34 18.02 -25 17 C-22.9609375 15.421875 -22.9609375 15.421875 -20.375 13.75 C-16.2751666 10.98554091 -12.87148904 8.07011153 -9.45703125 4.51171875 C-6.14589054 1.0762993 -4.88610928 0 0 0 Z " fill="#C61F25" transform="translate(272,23)"/>
<path d="M0 0 C0.33 14.19 0.66 28.38 1 43 C5.95 43.33 10.9 43.66 16 44 C16 38.39 16 32.78 16 27 C23.75 23 23.75 23 26 23 C26 29.93 26 36.86 26 44 C28.64 44 31.28 44 34 44 C34 37.07 34 30.14 34 23 C41 20 41 20 44 20 C44 27.92 44 35.84 44 44 C46.97 44 49.94 44 53 44 C53 36.08 53 28.16 53 20 C60 17 60 17 63 17 C63 25.91 63 34.82 63 44 C75.21 44 87.42 44 100 44 C99.01 41.03 98.02 38.06 97 35 C97 34.01 97 33.02 97 32 C88.83149204 30.76140768 88.83149204 30.76140768 81 33 C80.67 33.66 80.34 34.32 80 35 C79.01 35 78.02 35 77 35 C74.75 32.75 74.75 32.75 73 30 C73.3823656 26.67478488 74.87538162 24.40762925 76.75 21.6875 C77.554375 20.51960938 77.554375 20.51960938 78.375 19.328125 C78.91125 18.55984375 79.4475 17.7915625 80 17 C80.7115625 15.94039062 80.7115625 15.94039062 81.4375 14.859375 C82.57019016 13.20079298 83.7787065 11.59446652 85 10 C85.66 10 86.32 10 87 10 C87.268125 9.2575 87.53625 8.515 87.8125 7.75 C89.01516905 4.96487167 89.85599716 3.14400284 92 1 C95.13671875 0.609375 95.13671875 0.609375 98.6875 0.75 C100.45673828 0.80414063 100.45673828 0.80414063 102.26171875 0.859375 C103.16535156 0.90578125 104.06898438 0.9521875 105 1 C103.60612062 5.06487338 101.68116942 7.89609258 98.9375 11.1875 C96.19079836 14.41282987 96.19079836 14.41282987 94 18 C95.216875 18.391875 96.43375 18.78375 97.6875 19.1875 C103.64394904 21.42906121 107.12015348 25.38429929 110 31 C110.8207094 33.73640127 111.12807281 36.18780024 111.1328125 39.0390625 C111.13410156 39.78414062 111.13539063 40.52921875 111.13671875 41.296875 C111.13285156 42.06515625 111.12898438 42.8334375 111.125 43.625 C111.12886719 44.40101562 111.13273437 45.17703125 111.13671875 45.9765625 C111.12670133 51.74659734 111.12670133 51.74659734 110 54 C95.48337098 54.02336905 80.96674488 54.04093237 66.4501009 54.05181217 C59.70964745 54.05696661 52.9692057 54.06399309 46.22875977 54.07543945 C39.72543062 54.08647788 33.22210906 54.09228244 26.71877098 54.09487724 C24.23604325 54.09672674 21.7533162 54.10033826 19.27059364 54.10573006 C15.79667339 54.11297529 12.32280353 54.11398946 8.84887695 54.11352539 C7.81957062 54.11712067 6.79026428 54.12071594 5.72976685 54.12442017 C4.78050827 54.1230455 3.83124969 54.12167084 2.85322571 54.12025452 C2.03190816 54.12117631 1.21059061 54.1220981 0.36438465 54.12304783 C-2 54 -2 54 -4.74082661 53.42998409 C-5.48635383 53.28808934 -6.23188105 53.14619459 -7 53 C-7.33 53.33 -7.66 53.66 -8 54 C-10.59041494 54.1004222 -13.15419053 54.13617044 -15.74511719 54.12939453 C-16.55653168 54.13114685 -17.36794617 54.13289917 -18.20394897 54.13470459 C-20.90161239 54.13912589 -23.59921085 54.13618306 -26.296875 54.1328125 C-28.16676852 54.13348572 -30.03666196 54.1344559 -31.90655518 54.13571167 C-35.83419626 54.13718923 -39.76181467 54.13503319 -43.68945312 54.13037109 C-48.72113234 54.12468948 -53.75275804 54.12794247 -58.78443527 54.13394356 C-62.65004884 54.13756102 -66.51564978 54.13640485 -70.38126373 54.13381577 C-72.23599504 54.13314896 -74.09072749 54.13396631 -75.94545746 54.13629532 C-78.54277062 54.1388395 -81.13999791 54.1349556 -83.73730469 54.12939453 C-84.5032193 54.13141876 -85.26913391 54.13344299 -86.05825806 54.13552856 C-89.84728323 54.12052698 -93.29988429 53.77654637 -97 53 C-97.33 53.33 -97.66 53.66 -98 54 C-99.7492872 54.09365006 -101.50236254 54.11744438 -103.25415039 54.11352539 C-104.37523697 54.11344986 -105.49632355 54.11337433 -106.65138245 54.11329651 C-108.48103798 54.10555458 -108.48103798 54.10555458 -110.34765625 54.09765625 C-111.58921982 54.0962413 -112.83078339 54.09482635 -114.10997009 54.09336853 C-117.41605491 54.08870591 -120.72207146 54.07971497 -124.02813721 54.06866455 C-127.3996115 54.05844827 -130.77109283 54.05387045 -134.14257812 54.04882812 C-140.76173775 54.03777395 -147.38086493 54.02101736 -154 54 C-154.29656494 54.93320068 -154.29656494 54.93320068 -154.59912109 55.88525391 C-154.86289551 56.69913574 -155.12666992 57.51301758 -155.3984375 58.3515625 C-155.65802246 59.15932129 -155.91760742 59.96708008 -156.18505859 60.79931641 C-157.56736415 64.53212116 -159.33151511 66.21362392 -162.90625 67.8984375 C-170.93952425 70.98163079 -178.9484773 71.06105793 -187.0234375 68.05078125 C-191.43947796 65.70312338 -194.14767205 61.5660265 -196 57 C-196.57441606 54.18301601 -196.92042448 51.35470559 -197.25 48.5 C-197.4046875 47.36111328 -197.4046875 47.36111328 -197.5625 46.19921875 C-197.92552218 43.15090019 -198.14346571 40.5299792 -197.3359375 37.546875 C-195.51699852 35.44073512 -194.09052286 35.2155182 -191.375 34.75 C-190.55773437 34.60046875 -189.74046875 34.4509375 -188.8984375 34.296875 C-187.95871094 34.14992188 -187.95871094 34.14992188 -187 34 C-186.96261719 34.845625 -186.92523438 35.69125 -186.88671875 36.5625 C-186.49909926 43.25083637 -186.10782665 49.00633433 -183 55 C-180.23544324 57.39096801 -178.62175026 57.93523435 -175 58.3125 C-171.7827623 57.97737107 -169.7377831 57.7491392 -167 56 C-164.44862182 49.55822246 -164.56200213 42.91534906 -164.375 36.0625 C-164.33632813 34.90169922 -164.29765625 33.74089844 -164.2578125 32.54492188 C-164.16404613 29.69676831 -164.07834083 26.84861262 -164 24 C-159.79759598 21.65447218 -157.98887899 21 -153 21 C-153 28.59 -153 36.18 -153 44 C-151.02 44 -149.04 44 -147 44 C-147.0314209 43.35450195 -147.0628418 42.70900391 -147.09521484 42.04394531 C-147.2201046 39.11298823 -147.29801951 36.1825901 -147.375 33.25 C-147.42527344 32.23421875 -147.47554688 31.2184375 -147.52734375 30.171875 C-147.58335572 27.33393543 -147.55359023 24.78500218 -147 22 C-143.13717681 18.14830887 -141.52426461 18 -136 18 C-136 26.58 -136 35.16 -136 44 C-133.36 44 -130.72 44 -128 44 C-128 35.42 -128 26.84 -128 18 C-121 15 -121 15 -117 15 C-117 24.57 -117 34.14 -117 44 C-109.2411612 43.93449018 -109.2411612 43.93449018 -102 42 C-101.67 35.07 -101.34 28.14 -101 21 C-97.7 19.68 -94.4 18.36 -91 17 C-90.93941406 18.55332031 -90.87882812 20.10664062 -90.81640625 21.70703125 C-90.73199846 23.74219695 -90.64735057 25.77735271 -90.5625 27.8125 C-90.52318359 28.83666016 -90.48386719 29.86082031 -90.44335938 30.91601562 C-90.40146484 31.89892578 -90.35957031 32.88183594 -90.31640625 33.89453125 C-90.27974854 34.80050049 -90.24309082 35.70646973 -90.20532227 36.63989258 C-90.0791795 39.15048782 -90.0791795 39.15048782 -89 42 C-86.16730334 43.41634833 -83.52533562 43.3463005 -80.375 43.5625 C-78.27125 43.706875 -76.1675 43.85125 -74 44 C-74 38.39 -74 32.78 -74 27 C-66.25 23 -66.25 23 -64 23 C-64 29.93 -64 36.86 -64 44 C-61.36 44 -58.72 44 -56 44 C-56 37.07 -56 30.14 -56 23 C-49 20 -49 20 -46 20 C-46 27.92 -46 35.84 -46 44 C-43.03 44 -40.06 44 -37 44 C-37 36.08 -37 28.16 -37 20 C-30 17 -30 17 -27 17 C-27 25.91 -27 34.82 -27 44 C-19.2411612 43.93449018 -19.2411612 43.93449018 -12 42 C-11.67 29.13 -11.34 16.26 -11 3 C-3 0 -3 0 0 0 Z " fill="#F3F3F3" transform="translate(578,59)"/>
<path d="M0 0 C1.32 0 2.64 0 4 0 C4 4.62 4 9.24 4 14 C2.68 14.33 1.36 14.66 0 15 C-0.495 14.505 -0.495 14.505 -1 14 C-3.44608998 13.84019563 -5.86731058 13.74070553 -8.31640625 13.68359375 C-9.04746078 13.66281265 -9.77851532 13.64203156 -10.53172302 13.62062073 C-12.87521656 13.55504976 -15.21882539 13.49620568 -17.5625 13.4375 C-19.14779855 13.39432192 -20.73308529 13.35070787 -22.31835938 13.30664062 C-26.21212037 13.1993608 -30.10599772 13.0981151 -34 13 C-34 16.3 -34 19.6 -34 23 C-24.1 22.505 -24.1 22.505 -14 22 C-13.67 21.34 -13.34 20.68 -13 20 C-11.68 20 -10.36 20 -9 20 C-9 25.61 -9 31.22 -9 37 C-10.32 37 -11.64 37 -13 37 C-13.33 36.01 -13.66 35.02 -14 34 C-20.6 33.67 -27.2 33.34 -34 33 C-34 37.29 -34 41.58 -34 46 C-29.33655441 45.90656397 -24.67363414 45.80049386 -20.01074219 45.68261719 C-18.42390862 45.64429415 -16.83698719 45.60944712 -15.25 45.578125 C-12.97103434 45.53254569 -10.69267532 45.47454162 -8.4140625 45.4140625 C-7.34679428 45.39673569 -7.34679428 45.39673569 -6.25796509 45.37905884 C-2.17896343 45.36591761 -2.17896343 45.36591761 1 43 C1.99 43 2.98 43 4 43 C4 47.95 4 52.9 4 58 C2.68 57.67 1.36 57.34 0 57 C-1.67899911 56.88834598 -3.36150062 56.82441792 -5.04394531 56.79467773 C-6.04468079 56.77473251 -7.04541626 56.75478729 -8.07647705 56.73423767 C-9.14952087 56.71752518 -10.2225647 56.70081268 -11.328125 56.68359375 C-12.43226746 56.66281265 -13.53640991 56.64203156 -14.67401123 56.62062073 C-18.19927783 56.55526354 -21.72461859 56.49630436 -25.25 56.4375 C-27.64063265 56.39430164 -30.03125782 56.35068693 -32.421875 56.30664062 C-38.28117173 56.19959628 -44.14054214 56.09780415 -50 56 C-49.83923477 55.43645813 -49.67846954 54.87291626 -49.51283264 54.29229736 C-48.97924605 51.90723246 -48.84163618 49.76508124 -48.79467773 47.32324219 C-48.7647599 45.94226349 -48.7647599 45.94226349 -48.73423767 44.53338623 C-48.71752518 43.54783752 -48.70081268 42.56228882 -48.68359375 41.546875 C-48.66281265 40.53151672 -48.64203156 39.51615845 -48.62062073 38.47003174 C-48.55529403 35.23008927 -48.49631863 31.99006652 -48.4375 28.75 C-48.39429874 26.55207507 -48.35068393 24.35415822 -48.30664062 22.15625 C-48.19962993 16.77091794 -48.09783227 11.3855062 -48 6 C-48.66 6 -49.32 6 -50 6 C-49.67 4.68 -49.34 3.36 -49 2 C-48.40087296 1.98969254 -47.80174591 1.97938507 -47.1844635 1.96876526 C-40.97189912 1.86093035 -34.75948659 1.74631456 -28.54711914 1.62768555 C-26.22586227 1.58426261 -23.90457192 1.54259316 -21.58325195 1.50268555 C-18.25461722 1.4451606 -14.92615215 1.38141575 -11.59765625 1.31640625 C-10.55287613 1.29969376 -9.50809601 1.28298126 -8.43165588 1.26576233 C-7.47073532 1.24581711 -6.50981476 1.22587189 -5.51977539 1.20532227 C-4.66928116 1.18977798 -3.81878693 1.1742337 -2.94252014 1.15821838 C-0.99476202 1.21055171 -0.99476202 1.21055171 0 0 Z " fill="#F4F4F4" transform="translate(276,166)"/>
<path d="M0 0 C0.69633545 0.09071777 1.3926709 0.18143555 2.11010742 0.27490234 C6.99287407 0.95895325 11.60358549 2.04182318 16.26953125 3.6640625 C18.33143764 4.39608452 18.33143764 4.39608452 21.1875 4.25 C21.75860208 9.10436767 19.9797308 11.39015155 17.1875 15.25 C16.49320621 16.5691582 15.81219505 17.89649406 15.1875 19.25 C14.1975 19.25 13.2075 19.25 12.1875 19.25 C11.94128906 18.62480469 11.69507813 17.99960938 11.44140625 17.35546875 C9.52145438 14.13162434 7.15567557 13.86263273 3.68359375 12.8515625 C-3.68982199 11.07455777 -9.497986 11.15766857 -16.8125 13.25 C-17.1425 14.9 -17.4725 16.55 -17.8125 18.25 C-16.81992187 18.37117188 -15.82734375 18.49234375 -14.8046875 18.6171875 C-12.70205123 18.87431822 -10.60038425 19.13632573 -8.49975586 19.40942383 C-4.98240637 19.86646749 -1.48446176 20.27819338 2.05078125 20.58203125 C9.95364386 21.36799901 15.8815653 23.00927283 21.1875 29.25 C22.88103835 33.91643447 22.65297009 39.07780623 21.625 43.875 C18.21795941 49.50402359 13.4770868 52.56974937 7.1875 54.25 C-6.80001918 55.94858997 -20.06685964 55.83667321 -32.8125 49.25 C-32.41417969 48.47076172 -32.41417969 48.47076172 -32.0078125 47.67578125 C-30.10551903 43.91979306 -28.29290295 40.19774121 -26.8125 36.25 C-25.8225 36.25 -24.8325 36.25 -23.8125 36.25 C-23.19375 37.03375 -22.575 37.8175 -21.9375 38.625 C-18.98460227 42.27269719 -16.30742846 43.015353 -11.7265625 43.734375 C-1.67970831 44.788509 -1.67970831 44.788509 7.125 40.625 C7.6509375 39.944375 7.6509375 39.944375 8.1875 39.25 C7.8575 38.26 7.5275 37.27 7.1875 36.25 C0.04648306 34.6375123 -7.01510753 33.72165236 -14.30224609 33.12353516 C-19.82165136 32.59793479 -25.54186887 31.86777023 -29.37109375 27.453125 C-31.42602174 22.88661836 -32.47392934 19.35245488 -31.8125 14.25 C-29.82365545 9.01619855 -26.97553822 4.6828801 -21.734375 2.30859375 C-14.45071648 -0.25555134 -7.67149759 -1.06179254 0 0 Z " fill="#EFEFEF" transform="translate(394.8125,167.75)"/>
<path d="M0 0 C1.32869387 0.35137088 2.6611269 0.68966517 4 1 C2.58163643 6.1576857 0.32608425 10.79975258 -3 15 C-3.66 15 -4.32 15 -5 15 C-5.495 13.02 -5.495 13.02 -6 11 C-16.77200308 7.61451332 -24.79820806 6.40958561 -36 9 C-35.80528889 10.94999129 -35.80528889 10.94999129 -35 13 C-31.88112792 15.00691079 -29.07643338 15.35207546 -25.421875 15.640625 C-24.34292969 15.74246094 -23.26398438 15.84429687 -22.15234375 15.94921875 C-19.90094466 16.14825174 -17.64826781 16.33336739 -15.39453125 16.50390625 C-6.77561226 17.35452489 -1.51986563 19.71016377 4 26.4375 C5.83717965 31.14527286 5.3385135 34.84507157 3.9375 39.625 C0.74554474 45.18518013 -3.96555784 48.01968307 -10 50 C-12.69665988 50.34831857 -15.29367066 50.6050669 -18 50.75 C-18.74531982 50.79165283 -19.49063965 50.83330566 -20.25854492 50.8762207 C-28.4442837 51.22177663 -36.6238219 50.79119692 -44 47 C-46.66709069 46.83249586 -46.66709069 46.83249586 -49 47 C-50 45 -50 45 -49.328125 42.72265625 C-48.79445313 41.40587891 -48.79445313 41.40587891 -48.25 40.0625 C-47.90453125 39.18722656 -47.5590625 38.31195313 -47.203125 37.41015625 C-46.04357475 35.08729098 -44.94201527 33.69089261 -43 32 C-42.278125 32.78375 -41.55625 33.5675 -40.8125 34.375 C-35.23294062 39.58258876 -28.62313588 40.24006901 -21.16796875 40.16796875 C-17.35689675 39.87269651 -13.69239619 38.9572879 -10 38 C-9.3185177 36.10820797 -9.3185177 36.10820797 -9 34 C-13.01078952 29.98921048 -19.74312684 30.11416025 -25.1953125 29.53515625 C-25.93515381 29.45587891 -26.67499512 29.37660156 -27.43725586 29.29492188 C-28.90572043 29.14324798 -30.3753245 29.00212766 -31.84594727 28.87304688 C-37.78511387 28.27189153 -42.67227253 26.85024492 -47.4375 23.0625 C-49.94509154 18.14762059 -49.81563677 13.39465021 -49 8 C-47.09177543 3.254769 -43.64185202 0.05318978 -39.046875 -2.21484375 C-26.50626984 -7.02526672 -12.24915012 -4.77509242 0 0 Z " fill="#EEEEEE" transform="translate(527,172)"/>
<path d="M0 0 C6.27 0 12.54 0 19 0 C19 1.32 19 2.64 19 4 C18.34 4 17.68 4 17 4 C17 17.2 17 30.4 17 44 C28.22 43.67 39.44 43.34 51 43 C51 42.34 51 41.68 51 41 C52.32 41 53.64 41 55 41 C55 45.95 55 50.9 55 56 C53.35 55.67 51.7 55.34 50 55 C48.28291804 54.89130721 46.56277789 54.82516315 44.8425293 54.79467773 C43.34153938 54.7647599 43.34153938 54.7647599 41.81022644 54.73423767 C40.7423439 54.71752518 39.67446136 54.70081268 38.57421875 54.68359375 C36.92012749 54.6524221 36.92012749 54.6524221 35.23262024 54.62062073 C31.71764222 54.55535068 28.20259088 54.49634505 24.6875 54.4375 C22.30142477 54.39429335 19.91535691 54.35067837 17.52929688 54.30664062 C11.68627494 54.1996924 5.84318042 54.09788445 0 54 C0.33 52.68 0.66 51.36 1 50 C1.66 50 2.32 50 3 50 C3 34.82 3 19.64 3 4 C2.01 4 1.02 4 0 4 C0 2.68 0 1.36 0 0 Z " fill="#F9F9F9" transform="translate(296,168)"/>
<path d="M0 0 C0.66 0.33 1.32 0.66 2 1 C2 8.26 2 15.52 2 23 C3.98 22.67 5.96 22.34 8 22 C8.33 17.71 8.66 13.42 9 9 C10.65 8.67 12.3 8.34 14 8 C14.495 14.93 14.495 14.93 15 22 C16.65 22.33 18.3 22.66 20 23 C20.0825 21.9275 20.165 20.855 20.25 19.75 C21 16 21 16 22.625 13.5625 C25.92495309 11.39147823 28.13051412 11.50751998 32 12 C34.94242514 13.72486991 35.12098055 15.37567643 36.1875 18.6875 C36.455625 19.780625 36.72375 20.87375 37 22 C38.65 22.33 40.3 22.66 42 23 C42 16.07 42 9.14 42 2 C43.98 1.34 45.96 0.68 48 0 C48.08736736 3.72901814 48.14051482 7.45777165 48.1875 11.1875 C48.21263672 12.24259766 48.23777344 13.29769531 48.26367188 14.38476562 C48.27333984 15.40634766 48.28300781 16.42792969 48.29296875 17.48046875 C48.3086792 18.41785889 48.32438965 19.35524902 48.34057617 20.32104492 C47.93027995 23.54841438 46.95217265 25.41481516 45 28 C42.30078125 28.48828125 42.30078125 28.48828125 39.3125 28.3125 C38.31863281 28.26738281 37.32476562 28.22226563 36.30078125 28.17578125 C35.54152344 28.11777344 34.78226562 28.05976562 34 28 C34 28.66 34 29.32 34 30 C31.34271875 31.73745313 30.10399645 32.00831972 26.875 31.75 C24 31 24 31 22 29 C19.60929847 28.66191502 19.60929847 28.66191502 16.84375 28.65625 C15.31041016 28.61177734 15.31041016 28.61177734 13.74609375 28.56640625 C12.67488281 28.54449219 11.60367187 28.52257812 10.5 28.5 C8.38521782 28.45673731 6.27058553 28.40507373 4.15625 28.34375 C3.21587891 28.32505859 2.27550781 28.30636719 1.30664062 28.28710938 C-1 28 -1 28 -3 26 C-3.22705078 23.47802734 -3.22705078 23.47802734 -3.1953125 20.3359375 C-3.18886719 19.21445313 -3.18242187 18.09296875 -3.17578125 16.9375 C-3.15902344 15.761875 -3.14226562 14.58625 -3.125 13.375 C-3.11597656 12.19164063 -3.10695313 11.00828125 -3.09765625 9.7890625 C-3.07402812 6.85917477 -3.04108514 3.9296866 -3 1 C-2.01 0.67 -1.02 0.34 0 0 Z M27 18 C25.64381501 19.12534105 25.64381501 19.12534105 25.9375 22.0625 C25.958125 23.031875 25.97875 24.00125 26 25 C27.32 25 28.64 25 30 25 C31.00217064 21.41672247 31.00217064 21.41672247 30 18 C29.01 18 28.02 18 27 18 Z " fill="#DEDDDD" transform="translate(316,85)"/>
<path d="M0 0 C6.27 0 12.54 0 19 0 C19 1.32 19 2.64 19 4 C18.01 4 17.02 4 16 4 C16 17.86 16 31.72 16 46 C16.99 46 17.98 46 19 46 C19 47.32 19 48.64 19 50 C12.73 50 6.46 50 0 50 C0 48.68 0 47.36 0 46 C0.99 46 1.98 46 3 46 C3 32.14 3 18.28 3 4 C2.01 4 1.02 4 0 4 C0 2.68 0 1.36 0 0 Z " fill="#DFDFDF" transform="translate(437,172)"/>
<path d="M0 0 C0 17.82 0 35.64 0 54 C-3.96 54 -7.92 54 -12 54 C-12 37.17 -12 20.34 -12 3 C-3 0 -3 0 0 0 Z " fill="#F0F0F0" transform="translate(706,59)"/>
<path d="M0 0 C0 7.59 0 15.18 0 23 C2.31 23 4.62 23 7 23 C7 18.38 7 13.76 7 9 C8.32 9 9.64 9 11 9 C12.38226016 11.76452033 12.09525387 14.0461363 12.0625 17.125 C12.05347656 18.22070312 12.04445313 19.31640625 12.03515625 20.4453125 C12.02355469 21.28835937 12.01195312 22.13140625 12 23 C13.98 23 15.96 23 18 23 C18 19.7 18 16.4 18 13 C19.65 12.34 21.3 11.68 23 11 C23 14.96 23 18.92 23 23 C24.65 23 26.3 23 28 23 C28 19.04 28 15.08 28 11 C29.32 10.67 30.64 10.34 32 10 C32 14.29 32 18.58 32 23 C33.32 22.67 34.64 22.34 36 22 C36.495 15.565 36.495 15.565 37 9 C38.65 8.67 40.3 8.34 42 8 C42.08139142 10.39652528 42.14067009 12.79025436 42.1875 15.1875 C42.21263672 15.86103516 42.23777344 16.53457031 42.26367188 17.22851562 C42.32989004 21.75342367 42.07607954 24.61890228 39 28 C35.77159268 28.72065503 32.59381927 28.58014439 29.30078125 28.48828125 C28.35059616 28.48120651 27.40041107 28.47413177 26.4214325 28.46684265 C23.38432324 28.4388367 20.34905265 28.37608644 17.3125 28.3125 C15.2545839 28.28742516 13.19663893 28.26461058 11.13867188 28.24414062 C6.09173866 28.18898955 1.04618112 28.10267382 -4 28 C-5.80209776 24.63702886 -6.23797951 22.41815585 -6.1953125 18.578125 C-6.18564453 17.04091797 -6.18564453 17.04091797 -6.17578125 15.47265625 C-6.15902344 14.40917969 -6.14226562 13.34570312 -6.125 12.25 C-6.11597656 11.17105469 -6.10695313 10.09210938 -6.09765625 8.98046875 C-6.07411305 6.32008722 -6.04122799 3.66015664 -6 1 C-3 0 -3 0 0 0 Z " fill="#E4E4E4" transform="translate(270,85)"/>
<path d="M0 0 C6.93 0 13.86 0 21 0 C21 2.64 21 5.28 21 8 C16.71 8 12.42 8 8 8 C8 10.31 8 12.62 8 15 C11.96 15 15.92 15 20 15 C20 16.98 20 18.96 20 21 C19 22 19 22 16.49609375 22.09765625 C15.48675781 22.08605469 14.47742188 22.07445312 13.4375 22.0625 C12.42558594 22.05347656 11.41367187 22.04445312 10.37109375 22.03515625 C9.19740234 22.01775391 9.19740234 22.01775391 8 22 C8 24.64 8 27.28 8 30 C12.62 30 17.24 30 22 30 C22 32.31 22 34.62 22 37 C14.74 37 7.48 37 0 37 C0 24.79 0 12.58 0 0 Z " fill="#F2F2F2" transform="translate(555,182)"/>
<path d="M0 0 C2.21576222 2.20782725 2.94091934 3.5390438 3.34057617 6.65722656 C3.32486572 7.64174805 3.30915527 8.62626953 3.29296875 9.640625 C3.28330078 10.71054688 3.27363281 11.78046875 3.26367188 12.8828125 C3.23853516 13.99398437 3.21339844 15.10515625 3.1875 16.25 C3.16719727 17.93996094 3.16719727 17.93996094 3.14648438 19.6640625 C3.11115645 22.44319264 3.0618252 25.22135363 3 28 C0.36 28 -2.28 28 -5 28 C-5 21.07 -5 14.14 -5 7 C-6.65 7 -8.3 7 -10 7 C-10 13.93 -10 20.86 -10 28 C-12.64 28 -15.28 28 -18 28 C-19 27 -19 27 -19.11352539 24.40795898 C-19.10828857 23.28204346 -19.10305176 22.15612793 -19.09765625 20.99609375 C-19.09443359 19.78115234 -19.09121094 18.56621094 -19.08789062 17.31445312 C-19.07951172 16.03505859 -19.07113281 14.75566406 -19.0625 13.4375 C-19.05798828 12.15423828 -19.05347656 10.87097656 -19.04882812 9.54882812 C-19.03699545 6.36583978 -19.02051068 3.18294238 -19 0 C-17.95199219 0.01740234 -17.95199219 0.01740234 -16.8828125 0.03515625 C-15.97273437 0.04417969 -15.06265625 0.05320313 -14.125 0.0625 C-12.76761719 0.07990234 -12.76761719 0.07990234 -11.3828125 0.09765625 C-1.37092464 -0.31266702 -1.37092464 -0.31266702 0 0 Z " fill="#EBEBEB" transform="translate(655,191)"/>
<path d="M0 0 C3.08841941 1.30399931 4.55151476 2.27388103 6.3125 5.125 C7.27723225 9.15933487 7.12374407 12.85457362 7 17 C2.71 17 -1.58 17 -6 17 C-6 18.98 -6 20.96 -6 23 C-2.88667752 22.33131686 -2.88667752 22.33131686 -1.8125 19.9375 C-1.544375 19.298125 -1.27625 18.65875 -1 18 C1.64 18 4.28 18 7 18 C6.74277844 21.68684241 6.14419243 23.78603703 4.0625 26.875 C-0.23155688 29.85454967 -3.91851888 29.60288759 -9 29 C-12 28 -12 28 -13.6875 25.125 C-16.027387 19.15213055 -15.50213206 12.76172632 -14.375 6.5625 C-11.19777704 0.64131175 -6.40648642 -0.815371 0 0 Z M-5 7 C-5.33 8.32 -5.66 9.64 -6 11 C-4.35 11 -2.7 11 -1 11 C-1.66 9.68 -2.32 8.36 -3 7 C-3.66 7 -4.32 7 -5 7 Z " fill="#DBDBDB" transform="translate(623,190)"/>
<path d="M0 0 C2.875 1.0625 2.875 1.0625 5 3 C5.8125 6.6875 5.8125 6.6875 6 10 C3.36 10 0.72 10 -2 10 C-2.33 9.34 -2.66 8.68 -3 8 C-3.99 7.67 -4.98 7.34 -6 7 C-6 7.99 -6 8.98 -6 10 C-4.783125 10.226875 -3.56625 10.45375 -2.3125 10.6875 C1.99715528 11.78979194 4.36324954 13.29206967 7 17 C7.53416903 20.80595431 7.55569356 22.99445927 5.6875 26.375 C2.22470107 29.70954712 -2.02322972 29.27977993 -6.546875 29.20703125 C-9.85789949 28.92759765 -11.6668086 28.41096444 -14 26 C-14.3125 22.3125 -14.3125 22.3125 -14 19 C-11.36 19 -8.72 19 -6 19 C-5.34 20.32 -4.68 21.64 -4 23 C-3.67 22.01 -3.34 21.02 -3 20 C-3.71027344 19.65066406 -4.42054688 19.30132812 -5.15234375 18.94140625 C-6.07144531 18.48636719 -6.99054687 18.03132813 -7.9375 17.5625 C-8.85402344 17.11003906 -9.77054688 16.65757812 -10.71484375 16.19140625 C-13 15 -13 15 -14 14 C-14.43336933 10.94784169 -14.49074939 8.04584676 -14 5 C-9.64132345 0.41191942 -6.22158855 -0.42180261 0 0 Z " fill="#DCDBDB" transform="translate(698,190)"/>
<path d="M0 0 C0.495 0.99 0.495 0.99 1 2 C0.06421005 4.35981813 -0.93347808 6.69631264 -2 9 C-2.99 9 -3.98 9 -5 9 C-4.74347656 9.72574219 -4.48695312 10.45148438 -4.22265625 11.19921875 C-4 14 -4 14 -5.87109375 16.45703125 C-6.71800781 17.23433594 -7.56492187 18.01164062 -8.4375 18.8125 C-9.28183594 19.60269531 -10.12617187 20.39289063 -10.99609375 21.20703125 C-11.65738281 21.79871094 -12.31867187 22.39039063 -13 23 C-12.67 23.66 -12.34 24.32 -12 25 C-9.69 25 -7.38 25 -5 25 C-5.33 23.02 -5.66 21.04 -6 19 C-5.34 19 -4.68 19 -4 19 C-4 18.34 -4 17.68 -4 17 C-3.34 17 -2.68 17 -2 17 C-1.34 15.68 -0.68 14.36 0 13 C1.32 13.66 2.64 14.32 4 15 C4.66 14.34 5.32 13.68 6 13 C8.625 12.875 8.625 12.875 11 13 C10.67 13.66 10.34 14.32 10 15 C9.34 15 8.68 15 8 15 C7.79375 15.53625 7.5875 16.0725 7.375 16.625 C5.46749574 19.91978009 2.95180616 22.59363628 0 25 C-0.66 25 -1.32 25 -2 25 C-2 25.66 -2 26.32 -2 27 C-3.6875 28.4453125 -3.6875 28.4453125 -6 30.125 C-10.1881651 33.26777792 -13.79020925 36.68371773 -17.37109375 40.49609375 C-19 42 -19 42 -21 42 C-21 42.66 -21 43.32 -21 44 C-22.828125 45.65625 -22.828125 45.65625 -25.25 47.5 C-26.03890625 48.1084375 -26.8278125 48.716875 -27.640625 49.34375 C-29.71137679 50.79739033 -31.7058932 51.94765743 -34 53 C-34.495 51.515 -34.495 51.515 -35 50 C-33.77240658 47.70768796 -32.51541764 45.6426284 -31.0625 43.5 C-30.65443115 42.88431152 -30.2463623 42.26862305 -29.82592773 41.63427734 C-28.56501091 39.7459478 -27.28631993 37.87110076 -26 36 C-25.60941406 35.42926758 -25.21882813 34.85853516 -24.81640625 34.27050781 C-20.24211371 27.63461803 -20.24211371 27.63461803 -18 25 C-17.34 25 -16.68 25 -16 25 C-15.773125 24.34 -15.54625 23.68 -15.3125 23 C-11.7994549 14.97018264 -6.17971367 6.17971367 0 0 Z " fill="#C2272C" transform="translate(49,277)"/>
<path d="M0 0 C2.97 0 5.94 0 9 0 C9.13277344 0.63808594 9.26554688 1.27617187 9.40234375 1.93359375 C9.57894531 2.75988281 9.75554688 3.58617187 9.9375 4.4375 C10.11152344 5.26121094 10.28554688 6.08492187 10.46484375 6.93359375 C10.80752994 8.97661204 10.80752994 8.97661204 12 10 C12.66 6.7 13.32 3.4 14 0 C16.64 0 19.28 0 22 0 C21.3956834 6.29496457 20.40787206 12.33800925 19 18.5 C18.82210937 19.30953125 18.64421875 20.1190625 18.4609375 20.953125 C17.1308171 26.8691829 17.1308171 26.8691829 16 28 C14.48071962 28.07179964 12.95832518 28.08392007 11.4375 28.0625 C10.61121094 28.05347656 9.78492188 28.04445312 8.93359375 28.03515625 C7.97646484 28.01775391 7.97646484 28.01775391 7 28 C4.49695948 23.40989703 3.02923681 19.0373851 1.8125 14 C1.63525391 13.31421875 1.45800781 12.6284375 1.27539062 11.921875 C0.27285956 7.86530144 -0.18912356 4.17376131 0 0 Z " fill="#E7E6E6" transform="translate(581,191)"/>
<path d="M0 0 C2.64 0 5.28 0 8 0 C8 2.31 8 4.62 8 7 C9.32 7 10.64 7 12 7 C12 9.31 12 11.62 12 14 C10.68 14 9.36 14 8 14 C8.33 18.62 8.66 23.24 9 28 C9.99 28.33 10.98 28.66 12 29 C12 30.98 12 32.96 12 35 C10.741875 35.020625 9.48375 35.04125 8.1875 35.0625 C7.12595703 35.07990234 7.12595703 35.07990234 6.04296875 35.09765625 C4 35 4 35 1 34 C-0.1482685 31.703463 -0.11561175 30.41686833 -0.09765625 27.8671875 C-0.09282227 26.65869141 -0.09282227 26.65869141 -0.08789062 25.42578125 C-0.07951172 24.58402344 -0.07113281 23.74226563 -0.0625 22.875 C-0.05798828 22.02550781 -0.05347656 21.17601562 -0.04882812 20.30078125 C-0.03702874 18.20049091 -0.01909306 16.1002367 0 14 C-1.32 13.67 -2.64 13.34 -4 13 C-4 11.02 -4 9.04 -4 7 C-2.68 7 -1.36 7 0 7 C0 4.69 0 2.38 0 0 Z " fill="#F3F2F2" transform="translate(667,184)"/>
<path d="M0 0 C2.94955935 1.65463086 3.65637756 2.8681936 4.625 6.05859375 C5.44901951 10.42148278 5.24017994 12.5279222 3.1875 16.5625 C0.6775632 19.07946743 -1.49685934 19.48851742 -5 19.6875 C-8.62808727 19.4438225 -9.97000812 19.0191948 -13.125 17 C-15.07388383 13.88178587 -15.74944117 11.70201245 -15.46875 8.00390625 C-14.82861437 5.26732642 -13.70510876 3.1083662 -11.76171875 1.0703125 C-8.09065043 -1.16000395 -4.09088328 -0.78086117 0 0 Z " fill="#C32026" transform="translate(452,147)"/>
<path d="M0 0 C0.05379226 2.95857409 0.09357093 5.91617721 0.125 8.875 C0.14175781 9.71675781 0.15851563 10.55851562 0.17578125 11.42578125 C0.18222656 12.23144531 0.18867188 13.03710938 0.1953125 13.8671875 C0.20578613 14.61081543 0.21625977 15.35444336 0.22705078 16.12060547 C0 18 0 18 -2 20 C-4.06298828 20.22705078 -4.06298828 20.22705078 -6.5703125 20.1953125 C-7.46621094 20.18886719 -8.36210937 20.18242188 -9.28515625 20.17578125 C-10.22230469 20.15902344 -11.15945312 20.14226562 -12.125 20.125 C-13.06988281 20.11597656 -14.01476562 20.10695313 -14.98828125 20.09765625 C-17.32577292 20.07404522 -19.66276123 20.04111516 -22 20 C-25.73863636 11.50852273 -25.73863636 11.50852273 -25 8 C-22.5 5.1875 -22.5 5.1875 -20 3 C-19.67 6.63 -19.34 10.26 -19 14 C-14.38 14 -9.76 14 -5 14 C-4.87625 11.875625 -4.7525 9.75125 -4.625 7.5625 C-4.4140625 3.94140625 -4.4140625 3.94140625 -4 1 C-2 0 -2 0 0 0 Z " fill="#E4E3E3" transform="translate(263,93)"/>
<path d="M0 0 C1.7325 0.1546875 1.7325 0.1546875 3.5 0.3125 C4.16 1.3025 4.82 2.2925 5.5 3.3125 C6.16 2.3225 6.82 1.3325 7.5 0.3125 C11 -0.0625 11 -0.0625 14.5 0.3125 C16.5 3.3125 16.5 3.3125 16.125 6.5 C15.815625 7.8921875 15.815625 7.8921875 15.5 9.3125 C13.19 9.6425 10.88 9.9725 8.5 10.3125 C7.84 8.9925 7.18 7.6725 6.5 6.3125 C5.84 6.3125 5.18 6.3125 4.5 6.3125 C3.84 7.6325 3.18 8.9525 2.5 10.3125 C-1.94936709 10.67325949 -1.94936709 10.67325949 -4.3125 9.125 C-5.90199375 6.6989306 -5.86487512 5.15852594 -5.5 2.3125 C-3.5 0.3125 -3.5 0.3125 0 0 Z " fill="#C85F64" transform="translate(462.5,117.6875)"/>
<path d="M0 0 C0 9.24 0 18.48 0 28 C-1.65 28 -3.3 28 -5 28 C-5 19.09 -5 10.18 -5 1 C-3 0 -3 0 0 0 Z " fill="#C8C7C7" transform="translate(370,85)"/>
<path d="M0 0 C-0.64047398 3.44748958 -1.99705019 5.84644185 -3.9375 8.75 C-4.46214844 9.54921875 -4.98679687 10.3484375 -5.52734375 11.171875 C-6.01332031 11.77515625 -6.49929688 12.3784375 -7 13 C-7.66 13 -8.32 13 -9 13 C-9.433125 14.423125 -9.433125 14.423125 -9.875 15.875 C-11 19 -11 19 -13 21 C-13.12117188 20.43410156 -13.24234375 19.86820313 -13.3671875 19.28515625 C-13.53476562 18.55167969 -13.70234375 17.81820312 -13.875 17.0625 C-14.03742188 16.33160156 -14.19984375 15.60070312 -14.3671875 14.84765625 C-14.82961523 12.79299706 -14.82961523 12.79299706 -17 12 C-15.58653438 10.55935235 -14.16908789 9.12260985 -12.75 7.6875 C-11.96109375 6.88699219 -11.1721875 6.08648437 -10.359375 5.26171875 C-4.87046632 0 -4.87046632 0 0 0 Z " fill="#BC363A" transform="translate(272,23)"/>
<path d="M0 0 C3 0 3 0 5 1 C3.71034824 2.37562854 2.37310707 3.70766393 1 5 C0.34 5 -0.32 5 -1 5 C-1 5.66 -1 6.32 -1 7 C-2.828125 8.65625 -2.828125 8.65625 -5.25 10.5 C-6.03890625 11.1084375 -6.8278125 11.716875 -7.640625 12.34375 C-9.71137679 13.79739033 -11.7058932 14.94765743 -14 16 C-14.33 15.01 -14.66 14.02 -15 13 C-13.56640625 10.30078125 -13.56640625 10.30078125 -11.5625 7.3125 C-10.57443359 5.82169922 -10.57443359 5.82169922 -9.56640625 4.30078125 C-9.04949219 3.54152344 -8.53257813 2.78226562 -8 2 C-5.525 2.99 -5.525 2.99 -3 4 C-2.566875 3.34 -2.13375 2.68 -1.6875 2 C-1.130625 1.34 -0.57375 0.68 0 0 Z " fill="#CC575B" transform="translate(29,314)"/>
<path d="M0 0 C1.670625 0.061875 1.670625 0.061875 3.375 0.125 C4.75625018 2.88750036 4.56579306 5.07231099 4.375 8.125 C2.375 10.125 2.375 10.125 -0.0625 10.4375 C-2.625 10.125 -2.625 10.125 -4.4375 8.9375 C-6.02699375 6.5114306 -5.98987512 4.97102594 -5.625 2.125 C-3.625 0.125 -3.625 0.125 0 0 Z " fill="#C15D62" transform="translate(462.625,117.875)"/>
<path d="M0 0 C0.495 1.485 0.495 1.485 1 3 C1.99 3.33 2.98 3.66 4 4 C3.34 4.33 2.68 4.66 2 5 C1.34 4.67 0.68 4.34 0 4 C0 3.34 0 2.68 0 2 C-1.99508067 1.31875294 -3.99638693 0.65572791 -6 0 C-6.97195312 -0.35320312 -7.94390625 -0.70640625 -8.9453125 -1.0703125 C-14.29220588 -2.5886972 -19.80849494 -2.13175356 -25.3125 -2 C-27.4750639 -1.94914606 -29.63785656 -1.90702356 -31.80078125 -1.875 C-32.75122314 -1.85179688 -33.70166504 -1.82859375 -34.6809082 -1.8046875 C-37 -2 -37 -2 -39 -4 C-36.16681141 -4.16950701 -33.33349012 -4.33567534 -30.5 -4.5 C-29.70851563 -4.54769531 -28.91703125 -4.59539062 -28.1015625 -4.64453125 C-7.67764211 -5.81639553 -7.67764211 -5.81639553 0 0 Z " fill="#C8646A" transform="translate(131,115)"/>
<path d="M0 0 C0.33 0.66 0.66 1.32 1 2 C0.06421005 4.35981813 -0.93347808 6.69631264 -2 9 C-2.99 9 -3.98 9 -5 9 C-4.63455078 10.10408203 -4.63455078 10.10408203 -4.26171875 11.23046875 C-4 14 -4 14 -5.58203125 16.23828125 C-6.31808594 16.92277344 -7.05414063 17.60726563 -7.8125 18.3125 C-8.54082031 19.00988281 -9.26914062 19.70726562 -10.01953125 20.42578125 C-12 22 -12 22 -14 22 C-14 22.99 -14 23.98 -14 25 C-14.66 25 -15.32 25 -16 25 C-12.98122242 16.21810157 -6.51480966 6.51480966 0 0 Z " fill="#C23A41" transform="translate(49,277)"/>
<path d="M0 0 C0.99 0 1.98 0 3 0 C2.40285146 2.95026053 1.53576409 4.97654439 -0.21484375 7.41796875 C-0.65376953 8.03220703 -1.09269531 8.64644531 -1.54492188 9.27929688 C-2.23424805 10.22385742 -2.23424805 10.22385742 -2.9375 11.1875 C-3.62102539 12.14946289 -3.62102539 12.14946289 -4.31835938 13.13085938 C-7.73428468 17.86714234 -7.73428468 17.86714234 -10 19 C-10.66 17.35 -11.32 15.7 -12 14 C-11.01 13.67 -10.02 13.34 -9 13 C-8.34 13.33 -7.68 13.66 -7 14 C-6.67 12.02 -6.34 10.04 -6 8 C-4.68 7.67 -3.36 7.34 -2 7 C-1.855625 6.401875 -1.71125 5.80375 -1.5625 5.1875 C-1.1127561 3.43849596 -0.57107659 1.71322977 0 0 Z " fill="#C74E55" transform="translate(199,123)"/>
<path d="M0 0 C1.9375 0.8125 1.9375 0.8125 4 2 C4.33 2.99 4.66 3.98 5 5 C5.66 5.33 6.32 5.66 7 6 C6.67 6.66 6.34 7.32 6 8 C6.99 8 7.98 8 9 8 C9.33 9.65 9.66 11.3 10 13 C10.99 13 11.98 13 13 13 C13 13.99 13 14.98 13 16 C13.99 16.33 14.98 16.66 16 17 C15.67 18.32 15.34 19.64 15 21 C11.03185035 17.24634493 7.83203497 13.2707518 4.6875 8.8125 C4.23310547 8.18408203 3.77871094 7.55566406 3.31054688 6.90820312 C0 2.25352444 0 2.25352444 0 0 Z " fill="#C14C51" transform="translate(94,127)"/>
<path d="M0 0 C2.05078125 0.03255208 4.1015625 0.06510417 6.15234375 0.09765625 C7.27734375 4.84765625 7.27734375 4.84765625 6.15234375 7.09765625 C-0.59765625 7.22265625 -0.59765625 7.22265625 -2.84765625 6.09765625 C-2.89037725 4.4315372 -2.88829457 2.7638274 -2.84765625 1.09765625 C-1.84765625 0.09765625 -1.84765625 0.09765625 0 0 Z " fill="#949394" transform="translate(248.84765625,90.90234375)"/>
<path d="M0 0 C0.33 0 0.66 0 1 0 C1 1.65 1 3.3 1 5 C0.01 5 -0.98 5 -2 5 C-2.33 5.99 -2.66 6.98 -3 8 C-4.32 8 -5.64 8 -7 8 C-7.33 9.98 -7.66 11.96 -8 14 C-9.98 14 -11.96 14 -14 14 C-12.52841629 10.38502261 -10.58537669 8.59408489 -7.5 6.25 C-6.30890625 5.32960938 -6.30890625 5.32960938 -5.09375 4.390625 C-3 3 -3 3 -1 3 C-0.67 2.01 -0.34 1.02 0 0 Z " fill="#C34248" transform="translate(220,64)"/>
<path d="M0 0 C-0.15481795 2.70931419 -0.48172081 4.46584039 -2.40234375 6.4453125 C-3.89771708 7.67679642 -5.4462924 8.8429837 -7 10 C-7.66 9.67 -8.32 9.34 -9 9 C-7.39537511 4.18612534 -5.52128094 0 0 0 Z " fill="#B63138" transform="translate(23,320)"/>
<path d="M0 0 C3.3772445 1.39275254 4.87070305 2.82273931 6.75 5.9375 C7.17796875 6.62714844 7.6059375 7.31679687 8.046875 8.02734375 C9 10 9 10 9 13 C5.04 13 1.08 13 -3 13 C-3 12.67 -3 12.34 -3 12 C0.3 12 3.6 12 7 12 C6.01 11.01 5.02 10.02 4 9 C3.3125 6.3125 3.3125 6.3125 3 4 C2.01 4 1.02 4 0 4 C0 2.68 0 1.36 0 0 Z " fill="#CE626A" transform="translate(201,217)"/>
<path d="M0 0 C1.2065625 0.0309375 1.2065625 0.0309375 2.4375 0.0625 C2.1075 2.7025 1.7775 5.3425 1.4375 8.0625 C-0.2125 8.0625 -1.8625 8.0625 -3.5625 8.0625 C-3.60491723 5.72955225 -3.60342937 3.39547433 -3.5625 1.0625 C-2.5625 0.0625 -2.5625 0.0625 0 0 Z " fill="#BD2228" transform="translate(462.5625,118.9375)"/>
<path d="M0 0 C1.32 0.33 2.64 0.66 4 1 C2.44298069 5.67105792 -0.08447373 9.08705685 -3 13 C-3.33 12.01 -3.66 11.02 -4 10 C-4.66 9.67 -5.32 9.34 -6 9 C-4.68 9 -3.36 9 -2 9 C-2.33 8.01 -2.66 7.02 -3 6 C-1.5625 3.375 -1.5625 3.375 0 1 C0 0.67 0 0.34 0 0 Z " fill="#C54146" transform="translate(244,57)"/>
<path d="M0 0 C1.98 0.66 3.96 1.32 6 2 C6 2.66 6 3.32 6 4 C0.72 4 -4.56 4 -10 4 C-9.67 3.34 -9.34 2.68 -9 2 C-6.03 2 -3.06 2 0 2 C0 1.34 0 0.68 0 0 Z " fill="#B02022" transform="translate(202,225)"/>
<path d="M0 0 C0.33 0.66 0.66 1.32 1 2 C0.06421005 4.35981813 -0.93347808 6.69631264 -2 9 C-2.99 9 -3.98 9 -5 9 C-4.67 10.65 -4.34 12.3 -4 14 C-4.99 14 -5.98 14 -7 14 C-7.33 13.01 -7.66 12.02 -8 11 C-6.6015625 8.5546875 -6.6015625 8.5546875 -4.625 5.875 C-3.65433594 4.54082031 -3.65433594 4.54082031 -2.6640625 3.1796875 C-1 1 -1 1 0 0 Z " fill="#C03A41" transform="translate(49,277)"/>
<path d="M0 0 C0.66 0.33 1.32 0.66 2 1 C0.68 3.31 -0.64 5.62 -2 8 C-2.66 8 -3.32 8 -4 8 C-3.67 9.32 -3.34 10.64 -3 12 C-4.98 12.66 -6.96 13.32 -9 14 C-7.45158425 10.65291949 -5.50894136 7.75332488 -3.375 4.75 C-2.74335938 3.85796875 -2.11171875 2.9659375 -1.4609375 2.046875 C-0.73777344 1.03367187 -0.73777344 1.03367187 0 0 Z " fill="#C55758" transform="translate(31,302)"/>
<path d="M0 0 C0.99 0.33 1.98 0.66 3 1 C0.03 3.97 -2.94 6.94 -6 10 C-6.66 9.67 -7.32 9.34 -8 9 C-6.75023244 5.34683329 -6.32901247 4.21934164 -3 2 C-2.01 2 -1.02 2 0 2 C0 1.34 0 0.68 0 0 Z " fill="#C04344" transform="translate(96,255)"/>
<path d="M0 0 C0.33 0 0.66 0 1 0 C1 1.98 1 3.96 1 6 C0.34 6 -0.32 6 -1 6 C-0.67 6.99 -0.34 7.98 0 9 C-1.65 10.65 -3.3 12.3 -5 14 C-5.66 13.67 -6.32 13.34 -7 13 C-5.82690214 10.45828796 -4.5091503 8.27116256 -2.9375 5.9375 C-0.89527457 3.1164266 -0.89527457 3.1164266 0 0 Z " fill="#CA5257" transform="translate(122,171)"/>
<path d="M0 0 C0.66 0.33 1.32 0.66 2 1 C1.67 1.99 1.34 2.98 1 4 C0.01 4.33 -0.98 4.66 -2 5 C-2 6.258125 -2 7.51625 -2 8.8125 C-2 11.20833333 -2 13.60416667 -2 16 C-2.99 15.34 -3.98 14.68 -5 14 C-5.87405159 7.44461305 -5.87405159 7.44461305 -3.875 4.140625 C-2.5 2.5 -2.5 2.5 0 0 Z " fill="#CC6A6E" transform="translate(442,147)"/>
<path d="M0 0 C1.32 0 2.64 0 4 0 C4 0.99 4 1.98 4 3 C4.99 3.33 5.98 3.66 7 4 C7 5.65 7 7.3 7 9 C6.360625 8.195625 5.72125 7.39125 5.0625 6.5625 C3.59396498 4.7249496 3.59396498 4.7249496 2 3 C0.68 4.65 -0.64 6.3 -2 8 C-2 6.35 -2 4.7 -2 3 C-1.34 3 -0.68 3 0 3 C0 2.01 0 1.02 0 0 Z " fill="#CB5B60" transform="translate(145,201)"/>
<path d="M0 0 C3.83968859 1.4564336 5.31006462 3.28214217 7 7 C7.3125 10.1875 7.3125 10.1875 7 13 C6.34 13.66 5.68 14.32 5 15 C5 12.03 5 9.06 5 6 C4.01 6 3.02 6 2 6 C1.34 4.02 0.68 2.04 0 0 Z " fill="#C45158" transform="translate(450,147)"/>
<path d="M0 0 C1.2518241 2.95885695 1.00203521 3.99475129 -0.1875 7.0625 C-1.9183668 9.86769792 -3.23492634 11.28374738 -6 13 C-6.66 12.67 -7.32 12.34 -8 12 C-7.50628906 11.30132812 -7.01257813 10.60265625 -6.50390625 9.8828125 C-5.86324219 8.97273437 -5.22257812 8.06265625 -4.5625 7.125 C-3.92441406 6.22007812 -3.28632812 5.31515625 -2.62890625 4.3828125 C-1.00481862 2.12261419 -1.00481862 2.12261419 0 0 Z " fill="#CB5A5E" transform="translate(81,230)"/>
<path d="M0 0 C6.27 0 12.54 0 19 0 C19 1.32 19 2.64 19 4 C18.34 3.67 17.68 3.34 17 3 C17 2.67 17 2.34 17 2 C12.38 2 7.76 2 3 2 C3 2.66 3 3.32 3 4 C2.01 4 1.02 4 0 4 C0 2.68 0 1.36 0 0 Z " fill="#808080" transform="translate(296,168)"/>
<path d="M0 0 C0.66 0 1.32 0 2 0 C2 0.66 2 1.32 2 2 C2.99 2 3.98 2 5 2 C5 3.98 5 5.96 5 8 C5.66 8 6.32 8 7 8 C7 8.66 7 9.32 7 10 C7.66 10.33 8.32 10.66 9 11 C8.34 11.66 7.68 12.32 7 13 C5.82479354 11.40207898 4.66008753 9.79643092 3.5 8.1875 C2.8503125 7.29417969 2.200625 6.40085937 1.53125 5.48046875 C0 3 0 3 0 0 Z " fill="#B7353A" transform="translate(84,111)"/>
<path d="M0 0 C0.99 0.33 1.98 0.66 3 1 C3 1.66 3 2.32 3 3 C2.01 3.66 1.02 4.32 0 5 C-0.33 5.66 -0.66 6.32 -1 7 C-2.30915279 8.03145371 -3.64082143 9.03542166 -5 10 C-5 9.34 -5 8.68 -5 8 C-5.66 7.67 -6.32 7.34 -7 7 C-6.01 7 -5.02 7 -4 7 C-4.33 6.01 -4.66 5.02 -5 4 C-3.35 3.34 -1.7 2.68 0 2 C0 1.34 0 0.68 0 0 Z " fill="#C21B1D" transform="translate(198,85)"/>
<path d="M0 0 C0.66 0 1.32 0 2 0 C2 0.99 2 1.98 2 3 C2.99 3 3.98 3 5 3 C5 3.99 5 4.98 5 6 C5.99 6.33 6.98 6.66 8 7 C7.67 8.32 7.34 9.64 7 11 C3.17330957 7.57611908 1.27721526 4.99275057 0 0 Z " fill="#BC363C" transform="translate(102,137)"/>
<path d="M0 0 C1.32 0.66 2.64 1.32 4 2 C3.67 3.65 3.34 5.3 3 7 C1.68 6.67 0.36 6.34 -1 6 C-1.042721 4.33388095 -1.04063832 2.66617115 -1 1 C-0.67 0.67 -0.34 0.34 0 0 Z " fill="#CAC9CB" transform="translate(278,115)"/>
<path d="M0 0 C1.4540625 0.0309375 1.4540625 0.0309375 2.9375 0.0625 C3.9375 3.0625 3.9375 3.0625 2.9375 6.0625 C1.6175 5.7325 0.2975 5.4025 -1.0625 5.0625 C-1.0625 4.4025 -1.0625 3.7425 -1.0625 3.0625 C-2.0525 2.4025 -3.0425 1.7425 -4.0625 1.0625 C-3.0625 0.0625 -3.0625 0.0625 0 0 Z " fill="#B52324" transform="translate(447.0625,146.9375)"/>
<path d="M0 0 C0.625 1.8125 0.625 1.8125 1 4 C0.01 5.485 0.01 5.485 -1 7 C-1.66 7 -2.32 7 -3 7 C-3.33 8.32 -3.66 9.64 -4 11 C-4.66 10.67 -5.32 10.34 -6 10 C-4.6302836 6.00499382 -2.74277578 3.19990508 0 0 Z " fill="#BE4B4E" transform="translate(100,204)"/>
<path d="M0 0 C0 6.93 0 13.86 0 21 C-0.33 21 -0.66 21 -1 21 C-1.04898438 19.72382812 -1.09796875 18.44765625 -1.1484375 17.1328125 C-1.22346191 15.46351928 -1.29900988 13.79424954 -1.375 12.125 C-1.42140625 10.86236328 -1.42140625 10.86236328 -1.46875 9.57421875 C-1.50742187 8.76855469 -1.54609375 7.96289062 -1.5859375 7.1328125 C-1.6173584 6.38918457 -1.6487793 5.64555664 -1.68115234 4.87939453 C-1.85419551 2.75989026 -1.85419551 2.75989026 -4 1 C-2 0 -2 0 0 0 Z " fill="#6E6D6E" transform="translate(514,82)"/>
<path d="M0 0 C1.98 0.495 1.98 0.495 4 1 C3.67 2.65 3.34 4.3 3 6 C1.68 5.67 0.36 5.34 -1 5 C-0.67 3.35 -0.34 1.7 0 0 Z " fill="#B7B7B7" transform="translate(326,85)"/>
<path d="M0 0 C0.66 0.66 1.32 1.32 2 2 C1.21654285 3.17219543 0.42297164 4.33763668 -0.375 5.5 C-0.81585938 6.1496875 -1.25671875 6.799375 -1.7109375 7.46875 C-2.13632813 7.9740625 -2.56171875 8.479375 -3 9 C-3.66 9 -4.32 9 -5 9 C-5 7.02 -5 5.04 -5 3 C-3.68 3.33 -2.36 3.66 -1 4 C-1.33 3.01 -1.66 2.02 -2 1 C-1.34 0.67 -0.68 0.34 0 0 Z " fill="#C85658" transform="translate(257,43)"/>
<path d="M0 0 C0.99 0.33 1.98 0.66 3 1 C2.34 2.32 1.68 3.64 1 5 C0.34 5 -0.32 5 -1 5 C-1.66 6.65 -2.32 8.3 -3 10 C-3.68707555 7.50935112 -4 5.62113708 -4 3 C-2.68 3 -1.36 3 0 3 C0 2.01 0 1.02 0 0 Z " fill="#C54C4E" transform="translate(183,147)"/>
<path d="M0 0 C3.25548753 3.02295271 5.68977058 6.20462309 8 10 C8 10.66 8 11.32 8 12 C7.01 12.33 6.02 12.66 5 13 C4.87625 12.195625 4.7525 11.39125 4.625 10.5625 C4.41875 9.716875 4.2125 8.87125 4 8 C3.34 7.67 2.68 7.34 2 7 C1.26924352 4.6859378 0.59861742 2.35171131 0 0 Z " fill="#C86067" transform="translate(135,121)"/>
<path d="M0 0 C2.0625 0.4375 2.0625 0.4375 4 1 C3.67 2.32 3.34 3.64 3 5 C1.02 5 -0.96 5 -3 5 C-1.125 1.125 -1.125 1.125 0 0 Z " fill="#C64E54" transform="translate(209,73)"/>
<path d="M0 0 C1 3 1 3 0 6 C-2.31 6.33 -4.62 6.66 -7 7 C-5.66667905 3.00003714 -3.5042173 2.16217663 0 0 Z " fill="#D0686D" transform="translate(253,36)"/>
<path d="M0 0 C1.32 0.66 2.64 1.32 4 2 C1.36 3.98 -1.28 5.96 -4 8 C-4 6.68 -4 5.36 -4 4 C-3.34 4 -2.68 4 -2 4 C-1.67 3.01 -1.34 2.02 -1 1 C-0.67 0.67 -0.34 0.34 0 0 Z " fill="#BE3741" transform="translate(119,233)"/>
<path d="M0 0 C1.32 0.66 2.64 1.32 4 2 C3.67 3.32 3.34 4.64 3 6 C1.68 6.33 0.36 6.66 -1 7 C-0.67 4.69 -0.34 2.38 0 0 Z " fill="#C03339" transform="translate(189,200)"/>
<path d="M0 0 C0.33 0.66 0.66 1.32 1 2 C-2.14754098 8.64480874 -2.14754098 8.64480874 -5.25 9.9375 C-5.8275 9.958125 -6.405 9.97875 -7 10 C-6.67 9.01 -6.34 8.02 -6 7 C-5.34 7 -4.68 7 -4 7 C-3.71125 6.401875 -3.4225 5.80375 -3.125 5.1875 C-2 3 -2 3 0 0 Z " fill="#C13C44" transform="translate(163,115)"/>
<path d="M0 0 C0.66 0 1.32 0 2 0 C2 0.66 2 1.32 2 2 C2.99 2 3.98 2 5 2 C5.33 2.99 5.66 3.98 6 5 C4.35 5.66 2.7 6.32 1 7 C0 2.25 0 2.25 0 0 Z " fill="#C12F35" transform="translate(60,282)"/>
<path d="M0 0 C0.99 0.33 1.98 0.66 3 1 C3 1.99 3 2.98 3 4 C3.99 4.33 4.98 4.66 6 5 C6.33 6.65 6.66 8.3 7 10 C6.01 9.34 5.02 8.68 4 8 C4 7.34 4 6.68 4 6 C3.34 6 2.68 6 2 6 C1.34 4.02 0.68 2.04 0 0 Z " fill="#C85D60" transform="translate(112,152)"/>
<path d="M0 0 C1.65 0 3.3 0 5 0 C4.67 1.98 4.34 3.96 4 6 C2.68 5.67 1.36 5.34 0 5 C0 3.35 0 1.7 0 0 Z " fill="#BD1C24" transform="translate(470,121)"/>
<path d="M0 0 C1.32 0 2.64 0 4 0 C2.55746343 3.36591866 0.66735273 5.51047079 -2 8 C-1.125 1.125 -1.125 1.125 0 0 Z " fill="#B82D32" transform="translate(211,105)"/>
<path d="M0 0 C0.33 0.66 0.66 1.32 1 2 C0.67 2.99 0.34 3.98 0 5 C-0.99 5 -1.98 5 -3 5 C-3.33 5.99 -3.66 6.98 -4 8 C-5.65 8.33 -7.3 8.66 -9 9 C-6 6 -3 3 0 0 Z " fill="#C85A60" transform="translate(180,98)"/>
<path d="M0 0 C0.66 0.99 1.32 1.98 2 3 C0.68 4.32 -0.64 5.64 -2 7 C-2.99 6.01 -3.98 5.02 -5 4 C-3.35 2.68 -1.7 1.36 0 0 Z " fill="#C6363A" transform="translate(232,54)"/>
<path d="M0 0 C1.32 0 2.64 0 4 0 C3.43628586 3.26954202 2.50037734 4.82575883 0 7 C0 5.68 0 4.36 0 3 C-0.66 2.67 -1.32 2.34 -2 2 C-1.34 1.34 -0.68 0.68 0 0 Z " fill="#CB7075" transform="translate(268,23)"/>
<path d="M0 0 C-0.33 0.66 -0.66 1.32 -1 2 C-1.66 2 -2.32 2 -3 2 C-3.66 3.32 -4.32 4.64 -5 6 C-5.33 5.34 -5.66 4.68 -6 4 C-6.66 3.67 -7.32 3.34 -8 3 C-5.53387212 -0.1151089 -3.89156016 -0.31553191 0 0 Z " fill="#B83035" transform="translate(60,290)"/>
<path d="M0 0 C1.39195915 4.17587745 -0.17676781 6.13474776 -2 10 C-3.32 9.34 -4.64 8.68 -6 8 C-5.34 8 -4.68 8 -4 8 C-3.71125 7.236875 -3.4225 6.47375 -3.125 5.6875 C-2 3 -2 3 0 0 Z " fill="#C54D52" transform="translate(88,221)"/>
<path d="M0 0 C1.32 0.66 2.64 1.32 4 2 C4 2.66 4 3.32 4 4 C3.34 4 2.68 4 2 4 C1.34 5.65 0.68 7.3 0 9 C-1.10844919 5.67465243 -0.84454356 3.37817425 0 0 Z " fill="#BF3236" transform="translate(130,218)"/>
<path d="M0 0 C2 2 2 2 2.125 5.125 C2.08375 6.07375 2.0425 7.0225 2 8 C0.68 7.67 -0.64 7.34 -2 7 C-1.34 4.69 -0.68 2.38 0 0 Z " fill="#C71A20" transform="translate(261,29)"/>
<path d="M0 0 C0.66 0.33 1.32 0.66 2 1 C1.75 2.875 1.75 2.875 1 5 C-1.0625 6.25 -1.0625 6.25 -3 7 C-3 5.68 -3 4.36 -3 3 C-2.01 3 -1.02 3 0 3 C0 2.01 0 1.02 0 0 Z " fill="#C13F44" transform="translate(110,241)"/>
<path d="M0 0 C1.32 0.66 2.64 1.32 4 2 C3.01 3.98 2.02 5.96 1 8 C0.34 8 -0.32 8 -1 8 C-1 6.68 -1 5.36 -1 4 C-0.34 4 0.32 4 1 4 C0.67 2.68 0.34 1.36 0 0 Z " fill="#BF3C43" transform="translate(204,114)"/>
<path d="M0 0 C0.66 0.33 1.32 0.66 2 1 C1.67 2.98 1.34 4.96 1 7 C0.01 6.34 -0.98 5.68 -2 5 C-1.125 1.125 -1.125 1.125 0 0 Z " fill="#E3E3E3" transform="translate(254,91)"/>
<path d="M0 0 C3 1 3 1 4.25 2.875 C5 5 5 5 4 8 C0 3.375 0 3.375 0 0 Z " fill="#CC676C" transform="translate(152,210)"/>
<path d="M0 0 C0.99 0.33 1.98 0.66 3 1 C2.625 2.9375 2.625 2.9375 2 5 C1.01 5.495 1.01 5.495 0 6 C-0.66 4.35 -1.32 2.7 -2 1 C-1.34 0.67 -0.68 0.34 0 0 Z " fill="#C23A40" transform="translate(189,136)"/>
<path d="M0 0 C2.97 0 5.94 0 9 0 C7.25 4.875 7.25 4.875 5 6 C5.33 4.68 5.66 3.36 6 2 C3.03 1.505 3.03 1.505 0 1 C0 0.67 0 0.34 0 0 Z " fill="#1F1C1E" transform="translate(674,60)"/>
<path d="M0 0 C0.33 0 0.66 0 1 0 C1 1.65 1 3.3 1 5 C0.01 5.33 -0.98 5.66 -2 6 C-2 6.99 -2 7.98 -2 9 C-2.66 9 -3.32 9 -4 9 C-2.80100302 5.9168649 -1.52299523 2.93720508 0 0 Z " fill="#C14E51" transform="translate(37,293)"/>
<path d="M0 0 C0.33 0.66 0.66 1.32 1 2 C-0.98 3.32 -2.96 4.64 -5 6 C-5 4.35 -5 2.7 -5 1 C-3.35 0.67 -1.7 0.34 0 0 Z " fill="#CE595D" transform="translate(106,248)"/>
<path d="M0 0 C0.99 0.66 1.98 1.32 3 2 C2.67 2.99 2.34 3.98 2 5 C0.68 5 -0.64 5 -2 5 C-1.125 1.125 -1.125 1.125 0 0 Z " fill="#BE272B" transform="translate(73,243)"/>
<path d="M0 0 C3.465 1.485 3.465 1.485 7 3 C6.67 3.99 6.34 4.98 6 6 C5.34 6 4.68 6 4 6 C4 5.34 4 4.68 4 4 C3.34 4 2.68 4 2 4 C2 3.34 2 2.68 2 2 C1.34 2 0.68 2 0 2 C0 1.34 0 0.68 0 0 Z " fill="#C34348" transform="translate(157,218)"/>
</svg>
